# xmcd
# 
# Track frame offsets:
#     150
#     1200
#     19188
#     36438
#     54238
#     70980
#     84728
#     85153
#     106150
#     125273
#     141750
#     173590
#     175263
#     195508
#     207825
#     208128
#     226475
#     235183
#     259245
#     279945
#     295685
#     296290
# 
# Disc length: 4129
# 
# Revision: 3
# Processed by: cddbd v1.5.2PL0 Copyright (c) Steve Scherf et al.
# Submitted via: fre:ac v1.0.31
# 
DISCID=31101f16
DTITLE=Various Artist - Routine Jazz #01
DYEAR=2003
DGENRE=Jazz
TTITLE0=KEI KOBAYASHI - Routine Jazz Intro
TTITLE1=Jackie And Roy - Don't Be Blue
TTITLE2=Woody Herman - Giant Steps
TTITLE3=Mark Murphy - Madalena
TTITLE4=Monty Alexander Quintet - Medley:Impressions ~So What
TTITLE5=Billy Hawks - Oh Baby (I Believe I'm Losing You)
TTITLE6=KEI KOBAYASHI - Routine Jazz Interlude 1
TTITLE7=Ernestine Anderson - I Am His Lady
TTITLE8=Average White Band - I'm The One
TTITLE9=The 24-Carat Black - Ghetto:Misfortune's Wealth
TTITLE10=Kenny Bobien - If You Love Somebody Set Them Free
TTITLE11=KEI KOBAYASHI - Routine Jazz Interlude 2
TTITLE12=Bill Summers - Brazilian Skies
TTITLE13=Terumasa Hino - Samba De-La Cruz
TTITLE14=KEI KOBAYASHI - Routine Jazz Interlude 3
TTITLE15=Yasuko Agawa - Surrender (Azul)
TTITLE16=Pucho And The Latin Soul Brothers - What A Piece
TTITLE17=Harold Mabern - I Want You Back
TTITLE18=Nnenna Freelon - Bird Of Beauty
TTITLE19=Paulinho Da Costa - Carnival Of Colors
TTITLE20=KEI KOBAYASHI - Routine Jazz Ending
TTITLE21=Trudy Pitts and Mr.C - The Shadow Of Your Smile
EXTD=
EXTT0=
EXTT1=
EXTT2=
EXTT3=
EXTT4=
EXTT5=
EXTT6=
EXTT7=
EXTT8=
EXTT9=
EXTT10=
EXTT11=
EXTT12=
EXTT13=
EXTT14=
EXTT15=
EXTT16=
EXTT17=
EXTT18=
EXTT19=
EXTT20=
EXTT21=
PLAYORDER=
